<svg xmlns="http://www.w3.org/2000/svg" width="1024" height="1024" viewBox="0 0 1024 1024" role="img" aria-label="Kandinsky deterministic wallet portrait"><defs>
    <linearGradient id="sky-gradient" x1="0" x2="0" y1="0" y2="1">
      <stop offset="0%" stop-color="#cad5d1"/>
      <stop offset="42%" stop-color="#E8E2D4"/>
      <stop offset="100%" stop-color="#ded1ae"/>
    </linearGradient>
    <radialGradient id="paper-vignette" cx="50%" cy="40%" r="78%">
      <stop offset="0%" stop-color="#F7E8BE" stop-opacity="0.46"/>
      <stop offset="58%" stop-color="#F5F0E8" stop-opacity="0"/>
      <stop offset="100%" stop-color="#183E4B" stop-opacity="0.32"/>
    </radialGradient>
    <filter id="paper-noise" x="0" y="0" width="100%" height="100%">
      <feTurbulence type="fractalNoise" baseFrequency="0.018 0.032" numOctaves="5" seed="341" stitchTiles="stitch"/>
      <feColorMatrix type="saturate" values="0"/>
      <feComponentTransfer><feFuncA type="table" tableValues="0 0.22"/></feComponentTransfer>
    </filter>
  </defs><g id="curated-background"><rect x="0" y="0" width="1024" height="1024" fill="#F3EBCF"/><rect x="0" y="0" width="1024" height="1024" fill="#E4DDAF" opacity="0.22"/><rect x="56" y="108" width="292" height="398" fill="#D4A048" opacity="0.78"/><polygon points="642,122 930,438 590,438" fill="#E8C84A" opacity="0.56"/><polygon points="0,685 330,465 330,1024 0,1024" fill="#4A6B8A" opacity="0.28"/><rect x="0" y="0" width="1024" height="1024" fill="url(#paper-vignette)" opacity="0.36"/></g><g id="curated-rarity-aura" opacity="0.18"><rect x="780" y="150" width="92" height="92" fill="#4A6741"/></g><g id="curated-hair-back"><path d="M 224 250 C 264 95 619 70 734 185 L 704 330 C 544 262 376 292 234 410 Z" fill="#15140F"/></g><g id="curated-head"><path d="M 334.2 200 L 703.8 250 L 733.8 495 L 524 791.8 L 279.2 691.8 L 224.2 425 Z" fill="#F0E3CA"/></g><g id="curated-face-planes"><polygon points="236,375 416,305 372,548 192,548" fill="#D95F34" opacity="0.62"/><path d="M 322 558 L 722 548 L 756 660 L 364 695 Z" fill="#4A6B8A" opacity="0.84"/><polygon points="662,430 754,515 674,620" fill="#E8C84A" opacity="0.66"/></g><g id="curated-hair-front"><path d="M 249 245 C 404 115 699 135 759 292 C 644 252 489 242 279 360 Z" fill="#15140F"/></g><g id="curated-eyes"><path d="M 266 370.6 Q 336 334.6 428 376.6" fill="none" stroke="#15140F" stroke-width="22" stroke-linecap="round"/><path d="M 535.36 368.6 Q 605.36 336.6 697.36 374.6" fill="none" stroke="#15140F" stroke-width="22" stroke-linecap="round"/><g transform="rotate(-7 336 426.6)"><path d="M 270 426.6 Q 336 389.64000000000004 402 426.6 Q 336 453.2112 270 426.6 Z" fill="#F7EEDB" stroke="#15140F" stroke-width="6"/><circle cx="336" cy="426.6" r="19.9584" fill="#2F6F91"/><circle cx="336" cy="426.6" r="11.088" fill="#15140F"/></g><g transform="rotate(5 605.36 415.6)"><path d="M 557.36 415.6 Q 605.36 388.72 653.36 415.6 Q 605.36 434.95360000000005 557.36 415.6 Z" fill="#F7EEDB" stroke="#15140F" stroke-width="6"/><circle cx="605.36" cy="415.6" r="14.515200000000002" fill="#2F6F91"/><circle cx="605.36" cy="415.6" r="8.064" fill="#15140F"/></g></g><g id="curated-nose"><polygon points="484,350 447.06,610 389,585" fill="#80351F" opacity="0.68"/><polygon points="502,382 473.06,585 464,560" fill="#F3EBCF" opacity="0.92"/><path d="M 398 600 C 450 628 536 604 554 624" fill="none" stroke="#15140F" stroke-width="11" stroke-linecap="round"/></g><g id="curated-mouth"><path d="M 395 675 C 452 639 476 657 484 675 C 516 639 573 671 573 675 C 532 707 426 707 395 675 Z" fill="#D95F34"/><path d="M 383 691 C 464 717 539 713 591 691" fill="none" stroke="#15140F" stroke-width="5"/></g><g id="curated-clothing">
    <rect x="391.1" y="720" width="185.8" height="280" fill="#E8C84A" opacity="0.92"/>
    <polygon points="576.9000000000001,758 910,1024 576.9000000000001,1024" fill="#F0E3CA" opacity="0.9"/>
    <polygon points="391.1,762 145,1024 391.1,1024" fill="#D95F34" opacity="0.9"/>
    <polygon points="409,760 484,860 559,760" fill="#F3EBCF" opacity="0.88"/>
    
    
  </g><g id="curated-rare-item"><rect x="674" y="255" width="42" height="42" fill="none" stroke="#4A6741" stroke-width="5" transform="rotate(18 695 276)" opacity="0.72"/></g><g id="curated-linework" opacity="0.36">
    <line x1="476" y1="165" x2="476" y2="760" stroke="#15140F" stroke-width="2"/>
    <line x1="154" y1="735" x2="814" y2="735" stroke="#15140F" stroke-width="2"/>
    <line x1="254" y1="330" x2="734" y2="280" stroke="#15140F" stroke-width="1.5"/>
  </g><g id="paper-texture" opacity="0.82" style="mix-blend-mode:multiply">
    <rect x="0" y="0" width="1024" height="1024" filter="url(#paper-noise)" opacity="1"/>
    <rect x="0" y="0" width="1024" height="1024" fill="#C5B17C" opacity="0.08"/>
  </g></svg>