<svg xmlns="http://www.w3.org/2000/svg" width="1024" height="1024" viewBox="0 0 1024 1024" role="img" aria-label="Kandinsky deterministic wallet portrait"><defs>
    <linearGradient id="sky-gradient" x1="0" x2="0" y1="0" y2="1">
      <stop offset="0%" stop-color="#cfd7cd"/>
      <stop offset="42%" stop-color="#F5E8C8"/>
      <stop offset="100%" stop-color="#e4d4a9"/>
    </linearGradient>
    <radialGradient id="paper-vignette" cx="50%" cy="40%" r="78%">
      <stop offset="0%" stop-color="#F7E8BE" stop-opacity="0.46"/>
      <stop offset="58%" stop-color="#F5F0E8" stop-opacity="0"/>
      <stop offset="100%" stop-color="#183E4B" stop-opacity="0.32"/>
    </radialGradient>
    <filter id="paper-noise" x="0" y="0" width="100%" height="100%">
      <feTurbulence type="fractalNoise" baseFrequency="0.018 0.032" numOctaves="5" seed="12" stitchTiles="stitch"/>
      <feColorMatrix type="saturate" values="0"/>
      <feComponentTransfer><feFuncA type="table" tableValues="0 0.22"/></feComponentTransfer>
    </filter>
  </defs><g id="curated-background"><rect x="0" y="0" width="1024" height="1024" fill="#ECE2E4"/><rect x="0" y="0" width="1024" height="1024" fill="#D7C5CF" opacity="0.22"/><rect x="0" y="92" width="325" height="430" fill="#B64B58" opacity="0.55"/><polygon points="694,130 1000,130 1000,520 790,442" fill="#C9A953" opacity="0.34"/><rect x="625" y="682" width="399" height="248" fill="#536C89" opacity="0.25"/><rect x="0" y="0" width="1024" height="1024" fill="url(#paper-vignette)" opacity="0.36"/></g><g id="curated-rarity-aura" opacity="0.18"><rect x="780" y="150" width="92" height="92" fill="#8B5D83"/></g><g id="curated-hair-back"><path d="M 234 185 L 699 185 L 722 318 L 604 285 L 579 210 L 444 198 L 352 245 L 316 560 L 232 620 Z" fill="#15140F"/></g><g id="curated-head"><path d="M 342.4 175 C 720.6 145 755.6 370 670.6 748.2 C 590.6 863.2 327.4 868.2 262.4 728.2 C 202.39999999999998 415 229.39999999999998 235 342.4 175 Z" fill="#EFE0D4"/></g><g id="curated-face-planes"><polygon points="254,330 429,292 379,548 224,540" fill="#B64B58" opacity="0.68"/><polygon points="482,238 652,298 629,640 480,718" fill="#C9A953" opacity="0.9"/><rect x="299" y="575" width="362" height="126" fill="#7F7897" opacity="0.7848"/></g><g id="curated-hair-front"><polygon points="256,215 446,178 352,505" fill="#15140F"/><rect x="446" y="178" width="265" height="86" fill="#15140F"/></g><g id="curated-eyes"><path d="M 266 378.4 Q 336 342.4 428 384.4" fill="none" stroke="#15140F" stroke-width="22" stroke-linecap="round"/><path d="M 535.36 376.4 Q 605.36 344.4 697.36 382.4" fill="none" stroke="#15140F" stroke-width="22" stroke-linecap="round"/><g transform="rotate(-7 336 434.4)"><path d="M 270 434.4 Q 336 397.44 402 434.4 Q 336 461.0112 270 434.4 Z" fill="#F7EEDB" stroke="#15140F" stroke-width="6"/><circle cx="336" cy="434.4" r="19.9584" fill="#536C89"/><circle cx="336" cy="434.4" r="11.088" fill="#15140F"/></g><g transform="rotate(5 605.36 423.4)"><path d="M 557.36 423.4 Q 605.36 396.52 653.36 423.4 Q 605.36 442.7536 557.36 423.4 Z" fill="#F7EEDB" stroke="#15140F" stroke-width="6"/><circle cx="605.36" cy="423.4" r="14.515200000000002" fill="#536C89"/><circle cx="605.36" cy="423.4" r="8.064" fill="#15140F"/></g></g><g id="curated-nose"><polygon points="484,350 461.66,610 389,585" fill="#6A2936" opacity="0.68"/><polygon points="502,382 487.66,585 464,560" fill="#ECE2E4" opacity="0.92"/><path d="M 398 600 C 450 628 536 604 554 624" fill="none" stroke="#15140F" stroke-width="11" stroke-linecap="round"/></g><g id="curated-mouth"><path d="M 395 675 C 452 639 476 657 484 675 C 516 639 573 671 573 675 C 532 707 426 707 395 675 Z" fill="#B64B58"/><path d="M 383 691 C 464 717 539 713 591 691" fill="none" stroke="#15140F" stroke-width="5"/></g><g id="curated-clothing">
    <rect x="379.4" y="720" width="209.2" height="280" fill="#B64B58" opacity="0.92"/>
    <polygon points="588.5999999999999,758 910,1024 588.5999999999999,1024" fill="#C9A953" opacity="0.9"/>
    <polygon points="379.4,762 145,1024 379.4,1024" fill="#EFE0D4" opacity="0.9"/>
    <polygon points="409,760 484,860 559,760" fill="#ECE2E4" opacity="0.88"/>
    
    
  </g><g id="curated-rare-item"><rect x="674" y="255" width="42" height="42" fill="none" stroke="#8B5D83" stroke-width="5" transform="rotate(18 695 276)" opacity="0.72"/></g><g id="curated-linework" opacity="0.36">
    <line x1="476" y1="165" x2="476" y2="760" stroke="#15140F" stroke-width="2"/>
    <line x1="154" y1="735" x2="814" y2="735" stroke="#15140F" stroke-width="2"/>
    <line x1="254" y1="330" x2="734" y2="280" stroke="#15140F" stroke-width="1.5"/>
  </g><g id="paper-texture" opacity="0.82" style="mix-blend-mode:multiply">
    <rect x="0" y="0" width="1024" height="1024" filter="url(#paper-noise)" opacity="1"/>
    <rect x="0" y="0" width="1024" height="1024" fill="#C5B17C" opacity="0.08"/>
  </g></svg>