<svg xmlns="http://www.w3.org/2000/svg" width="1024" height="1024" viewBox="0 0 1024 1024" role="img" aria-label="Kandinsky deterministic wallet portrait"><defs>
    <linearGradient id="sky-gradient" x1="0" x2="0" y1="0" y2="1">
      <stop offset="0%" stop-color="#cad5d1"/>
      <stop offset="42%" stop-color="#E8E2D4"/>
      <stop offset="100%" stop-color="#ded1ae"/>
    </linearGradient>
    <radialGradient id="paper-vignette" cx="50%" cy="40%" r="78%">
      <stop offset="0%" stop-color="#F7E8BE" stop-opacity="0.46"/>
      <stop offset="58%" stop-color="#F5F0E8" stop-opacity="0"/>
      <stop offset="100%" stop-color="#183E4B" stop-opacity="0.32"/>
    </radialGradient>
    <filter id="paper-noise" x="0" y="0" width="100%" height="100%">
      <feTurbulence type="fractalNoise" baseFrequency="0.018 0.032" numOctaves="5" seed="182" stitchTiles="stitch"/>
      <feColorMatrix type="saturate" values="0"/>
      <feComponentTransfer><feFuncA type="table" tableValues="0 0.22"/></feComponentTransfer>
    </filter>
  </defs><g id="curated-background"><rect x="0" y="0" width="1024" height="1024" fill="#EEE5DF"/><rect x="0" y="0" width="1024" height="1024" fill="#DBCBC9" opacity="0.22"/><circle cx="730" cy="205" r="121.2" fill="#C77E63" opacity="0.34"/><rect x="58" y="660" width="390" height="245" fill="#263F5E" opacity="0.3"/><polygon points="0,360 310,120 310,620 0,620" fill="#CCAA4A" opacity="0.36"/><rect x="0" y="0" width="1024" height="1024" fill="url(#paper-vignette)" opacity="0.36"/></g><g id="curated-rarity-aura" opacity="0.18"><rect x="780" y="150" width="92" height="92" fill="#A16976"/></g><g id="curated-hair-back"><path d="M 224 250 C 264 95 619 70 734 185 L 704 330 C 544 262 376 292 234 410 Z" fill="#15140F"/></g><g id="curated-head"><path d="M 315.1 280 C 395.1 157 672.9 189 732.9 335 C 779.9 480 652.9 762 479 802 C 344 742 240.10000000000002 465 315.1 280 Z" fill="#F2E2D6"/></g><g id="curated-face-planes"><polygon points="270,305 386,262 362,710 266,702" fill="#CCAA4A" opacity="0.84"/><polygon points="540,318 714,372 690,548 544,520" fill="#D34A42" opacity="0.7"/><rect x="372" y="578" width="320" height="88" fill="#3E5874" opacity="0.9"/></g><g id="curated-hair-front"><path d="M 249 245 C 404 115 699 135 759 292 C 644 252 489 242 279 360 Z" fill="#15140F"/></g><g id="curated-eyes"><path d="M 288 368.5 Q 358 332.5 450 374.5" fill="none" stroke="#15140F" stroke-width="22" stroke-linecap="round"/><path d="M 517.3199999999999 366.5 Q 587.3199999999999 334.5 679.3199999999999 372.5" fill="none" stroke="#15140F" stroke-width="22" stroke-linecap="round"/><g transform="rotate(-7 358 424.5)"><path d="M 292 424.5 Q 358 387.54 424 424.5 Q 358 451.1112 292 424.5 Z" fill="#F7EEDB" stroke="#15140F" stroke-width="6"/><circle cx="358" cy="424.5" r="19.9584" fill="#2F6F91"/><circle cx="358" cy="424.5" r="11.088" fill="#15140F"/></g><g transform="rotate(5 587.3199999999999 413.5)"><path d="M 539.3199999999999 413.5 Q 587.3199999999999 386.62 635.3199999999999 413.5 Q 587.3199999999999 432.85360000000003 539.3199999999999 413.5 Z" fill="#F7EEDB" stroke="#15140F" stroke-width="6"/><circle cx="587.3199999999999" cy="413.5" r="14.515200000000002" fill="#2F6F91"/><circle cx="587.3199999999999" cy="413.5" r="8.064" fill="#15140F"/></g><circle cx="358" cy="416.5" r="58" fill="none" stroke="#15140F" stroke-width="12"/><circle cx="587.3199999999999" cy="413.5" r="58" fill="none" stroke="#15140F" stroke-width="12"/><line x1="416" y1="416.5" x2="529.3199999999999" y2="413.5" stroke="#15140F" stroke-width="9"/></g><g id="curated-nose"><polygon points="484,350 504,610 389,585" fill="#101A29" opacity="0.68"/><polygon points="502,382 530,585 464,560" fill="#EEE5DF" opacity="0.92"/><path d="M 398 600 C 450 628 536 604 554 624" fill="none" stroke="#15140F" stroke-width="11" stroke-linecap="round"/></g><g id="curated-mouth"><path d="M 395 675 C 452 639 476 657 484 675 C 516 639 573 671 573 675 C 532 707 426 707 395 675 Z" fill="#D34A42"/><path d="M 383 691 C 464 717 539 713 591 691" fill="none" stroke="#15140F" stroke-width="5"/></g><g id="curated-clothing">
    <rect x="394.25" y="720" width="179.5" height="280" fill="#F2E2D6" opacity="0.92"/>
    <polygon points="573.75,758 910,1024 573.75,1024" fill="#D34A42" opacity="0.9"/>
    <polygon points="394.25,762 145,1024 394.25,1024" fill="#CCAA4A" opacity="0.9"/>
    <polygon points="409,760 484,860 559,760" fill="#EEE5DF" opacity="0.88"/>
    
    
  </g><g id="curated-rare-item"><rect x="674" y="255" width="42" height="42" fill="none" stroke="#A16976" stroke-width="5" transform="rotate(18 695 276)" opacity="0.72"/></g><g id="curated-linework" opacity="0.36">
    <line x1="476" y1="165" x2="476" y2="760" stroke="#15140F" stroke-width="2"/>
    <line x1="154" y1="735" x2="814" y2="735" stroke="#15140F" stroke-width="2"/>
    <line x1="254" y1="330" x2="734" y2="280" stroke="#15140F" stroke-width="1.5"/>
  </g><g id="paper-texture" opacity="0.82" style="mix-blend-mode:multiply">
    <rect x="0" y="0" width="1024" height="1024" filter="url(#paper-noise)" opacity="1"/>
    <rect x="0" y="0" width="1024" height="1024" fill="#C5B17C" opacity="0.08"/>
  </g></svg>