<svg xmlns="http://www.w3.org/2000/svg" width="1024" height="1024" viewBox="0 0 1024 1024" role="img" aria-label="Kandinsky deterministic wallet portrait"><defs>
    <linearGradient id="sky-gradient" x1="0" x2="0" y1="0" y2="1">
      <stop offset="0%" stop-color="#cfd7cd"/>
      <stop offset="42%" stop-color="#F5E8C8"/>
      <stop offset="100%" stop-color="#e4d4a9"/>
    </linearGradient>
    <radialGradient id="paper-vignette" cx="50%" cy="40%" r="78%">
      <stop offset="0%" stop-color="#F7E8BE" stop-opacity="0.46"/>
      <stop offset="58%" stop-color="#F5F0E8" stop-opacity="0"/>
      <stop offset="100%" stop-color="#183E4B" stop-opacity="0.32"/>
    </radialGradient>
    <filter id="paper-noise" x="0" y="0" width="100%" height="100%">
      <feTurbulence type="fractalNoise" baseFrequency="0.018 0.032" numOctaves="5" seed="671" stitchTiles="stitch"/>
      <feColorMatrix type="saturate" values="0"/>
      <feComponentTransfer><feFuncA type="table" tableValues="0 0.22"/></feComponentTransfer>
    </filter>
  </defs><g id="curated-background"><rect x="0" y="0" width="1024" height="1024" fill="#E2ECE4"/><rect x="0" y="0" width="1024" height="1024" fill="#CADDD0" opacity="0.22"/><rect x="0" y="0" width="1024" height="1024" fill="#3D8178" opacity="0.1"/><circle cx="292" cy="250" r="184" fill="#B85B3A" opacity="0.26"/><polygon points="655,710 1024,520 1024,1024 655,1024" fill="#66301F" opacity="0.2"/><rect x="0" y="0" width="1024" height="1024" fill="url(#paper-vignette)" opacity="0.36"/></g><g id="curated-rarity-aura" opacity="0.18"><rect x="780" y="150" width="92" height="92" fill="#6E9468"/></g><g id="curated-hair-back"><rect x="282" y="150" width="420" height="150" fill="#15140F"/><polygon points="282,300 382,300 322,570 257,620" fill="#15140F"/><polygon points="702,300 747,300 722,480 672,450" fill="#15140F"/></g><g id="curated-head"><path d="M 347.5 200 L 746.5 250 L 776.5 495 L 552 821.2 L 292.5 721.2 L 237.5 425 Z" fill="#EFE3D0"/></g><g id="curated-face-planes"><polygon points="264,375 444,305 400,548 220,548" fill="#B85B3A" opacity="0.62"/><path d="M 350 558 L 750 548 L 784 660 L 392 695 Z" fill="#4F978B" opacity="0.84"/><polygon points="690,430 782,515 702,620" fill="#C9B64B" opacity="0.66"/></g><g id="curated-hair-front"><rect x="282" y="150" width="420" height="96" fill="#15140F"/><rect x="452" y="150" width="70" height="390" fill="#15140F"/></g><g id="curated-eyes"><path d="M 294 376.9 Q 364 340.9 456 382.9" fill="none" stroke="#15140F" stroke-width="22" stroke-linecap="round"/><path d="M 563.36 374.9 Q 633.36 342.9 725.36 380.9" fill="none" stroke="#15140F" stroke-width="22" stroke-linecap="round"/><g transform="rotate(-7 364 424.9)"><path d="M 298 424.9 Q 364 387.94 430 424.9 Q 364 451.5112 298 424.9 Z" fill="#F7EEDB" stroke="#15140F" stroke-width="6"/><circle cx="364" cy="424.9" r="19.9584" fill="#3D8178"/><circle cx="364" cy="424.9" r="11.088" fill="#15140F"/></g><g transform="rotate(5 633.36 421.9)"><path d="M 567.36 421.9 Q 633.36 384.94 699.36 421.9 Q 633.36 448.5112 567.36 421.9 Z" fill="#F7EEDB" stroke="#15140F" stroke-width="6"/><circle cx="633.36" cy="421.9" r="19.9584" fill="#3D8178"/><circle cx="633.36" cy="421.9" r="11.088" fill="#15140F"/></g></g><g id="curated-nose"><polygon points="512,350 503.28,610 417,585" fill="#66301F" opacity="0.68"/><polygon points="530,382 529.28,585 492,560" fill="#E2ECE4" opacity="0.92"/><path d="M 426 600 C 478 628 564 604 582 624" fill="none" stroke="#15140F" stroke-width="11" stroke-linecap="round"/></g><g id="curated-mouth"><path d="M 443 675 C 480 639 504 657 512 675 C 544 639 581 671 581 675 C 560 707 454 707 443 675 Z" fill="#B85B3A"/><path d="M 431 691 C 492 717 567 713 599 691" fill="none" stroke="#15140F" stroke-width="5"/></g><g id="curated-clothing">
    <rect x="409.65" y="720" width="204.7" height="280" fill="#EFE3D0" opacity="0.92"/>
    <polygon points="614.3499999999999,758 910,1024 614.3499999999999,1024" fill="#B85B3A" opacity="0.9"/>
    <polygon points="409.65,762 145,1024 409.65,1024" fill="#C9B64B" opacity="0.9"/>
    <polygon points="437,760 512,860 587,760" fill="#E2ECE4" opacity="0.88"/>
    
    
  </g><g id="curated-rare-item"><rect x="702" y="255" width="42" height="42" fill="none" stroke="#6E9468" stroke-width="5" transform="rotate(18 723 276)" opacity="0.72"/></g><g id="curated-linework" opacity="0.36">
    <line x1="504" y1="165" x2="504" y2="760" stroke="#15140F" stroke-width="2"/>
    <line x1="182" y1="735" x2="842" y2="735" stroke="#15140F" stroke-width="2"/>
    <line x1="282" y1="330" x2="762" y2="280" stroke="#15140F" stroke-width="1.5"/>
  </g><g id="paper-texture" opacity="0.82" style="mix-blend-mode:multiply">
    <rect x="0" y="0" width="1024" height="1024" filter="url(#paper-noise)" opacity="1"/>
    <rect x="0" y="0" width="1024" height="1024" fill="#C5B17C" opacity="0.08"/>
  </g></svg>