<svg xmlns="http://www.w3.org/2000/svg" width="1024" height="1024" viewBox="0 0 1024 1024" role="img" aria-label="Identity.0 deterministic Bauhaus wallet composition"><defs>
    <linearGradient id="sky-gradient" x1="0" x2="0" y1="0" y2="1">
      <stop offset="0%" stop-color="#cadadc"/>
      <stop offset="42%" stop-color="#E8EEF0"/>
      <stop offset="100%" stop-color="#ded6ba"/>
    </linearGradient>
    <radialGradient id="paper-vignette" cx="50%" cy="40%" r="78%">
      <stop offset="0%" stop-color="#F7E8BE" stop-opacity="0.46"/>
      <stop offset="58%" stop-color="#F5F0E8" stop-opacity="0"/>
      <stop offset="100%" stop-color="#183E4B" stop-opacity="0.32"/>
    </radialGradient>
    <filter id="paper-noise" x="0" y="0" width="100%" height="100%">
      <feTurbulence type="fractalNoise" baseFrequency="0.018 0.032" numOctaves="5" seed="681" stitchTiles="stitch"/>
      <feColorMatrix type="saturate" values="0"/>
      <feComponentTransfer><feFuncA type="table" tableValues="0 0.22"/></feComponentTransfer>
    </filter>
  </defs><g id="portrait-background">
    <rect x="0" y="0" width="1024" height="1024" fill="#E8EEF0"/>
    <rect x="0" y="0" width="1024" height="1024" fill="#D9E4E4" opacity="0.34"/>
    <rect x="0" y="0" width="1024" height="1024" fill="url(#paper-vignette)" opacity="0.42"/>
    <rect x="560" y="760" width="220" height="300" fill="#D8A7B2" opacity="0.2333639929816127"/><rect x="280" y="640" width="90" height="240" fill="#C8B7D0" opacity="0.24195417478680614"/><rect x="180" y="100" width="180" height="120" fill="#AEBFD0" opacity="0.1998107523098588"/><rect x="480" y="180" width="190" height="280" fill="#D7C58D" opacity="0.17763882871717215"/><rect x="560" y="100" width="210" height="190" fill="#D8A7B2" opacity="0.1392088871821761"/><rect x="620" y="340" width="140" height="170" fill="#C8B7D0" opacity="0.26313545688986784"/>
    <path d="M 820 205 L 650 330 L 810 905 L 955 850 Z" fill="#B64B58" opacity="0.492"/>
  </g><g id="portrait-back-shapes">
    <rect x="650" y="130" width="300" height="355" fill="#B64B58" opacity="0.86"/>
    <polygon points="650,330 500,330 650,490" fill="#C9A953" opacity="0.92"/>
    <polygon points="565,520 730,350 730,620" fill="#3A5A6A" opacity="0.88"/>
    <rect x="720" y="520" width="150" height="98" fill="#C58796" opacity="0.42"/>
    <polygon points="845,205 905,285 785,285" fill="#9D5F83" opacity="0.34"/>
  </g><g id="rarity-aura" opacity="0.42">
    <circle cx="500" cy="468" r="352" fill="none" stroke="#C9A953" stroke-width="24"/>
    <path d="M 145 525 C 310 80 745 78 890 525" fill="none" stroke="#B64B58" stroke-width="10"/>
    <path d="M 220 220 L 265 145 L 310 220 L 385 132 L 455 220 L 525 132 L 595 220 L 670 145 L 715 220" fill="none" stroke="#111318" stroke-width="8" opacity="0.72"/>
  </g><g id="portrait-hair-back"></g><g id="portrait-neck-shoulders">
    <rect x="360" y="665" width="226.39999999999998" height="240" fill="#E8EEF0" opacity="0.9"/>
    <polygon points="586.4,705 885,930 586.4,930" fill="#C9A953" opacity="0.94"/>
    <polygon points="335,745 210,930 335,930" fill="#E8EEF0" opacity="0.9"/>
    <polygon points="760,705 940,980 760,930" fill="#8B5D83" opacity="0.748"/>
    
    
  </g><g id="portrait-hair">
      <path d="M 310 207.84 C 490 95.84 795 121.84 835 277.84000000000003 C 846 347.84000000000003 796 399.84000000000003 742 385.84000000000003 L 708 229.84 C 572 187.84 464 201.84 310 269.84000000000003 Z" fill="#111318"/>
      <polygon points="310,269.84000000000003 372,241.84 355,482.84000000000003 302,532.84" fill="#111318"/>
    </g><g id="portrait-head">
      <rect x="315" y="207.7" width="470" height="554.6" fill="#F0E7D6"/>
      <polygon points="315,207.7 520,137.7 785,207.7" fill="#F0E7D6"/>
      <polygon points="562,207.7 785,207.7 785,727.3 562,827.3" fill="#C9A953" opacity="0.95"/>
      <rect x="355" y="545" width="395" height="145" fill="#5A7A8A" opacity="0.92"/>
    </g><g id="portrait-color-planes">
      <rect x="305" y="255" width="190" height="170" fill="#B64B58" opacity="0.74"/>
      <rect x="498" y="255" width="126" height="305" fill="#C9A953" opacity="0.88"/>
      <polygon points="624,255 790,355 790,565 624,565" fill="#B64B58" opacity="0.84"/>
      <rect x="350" y="575" width="420" height="120" fill="#5A7A8A" opacity="0.95"/>
      <circle cx="540" cy="715" r="62.8" fill="#E8EEF0" opacity="0.9"/>
    </g><g id="portrait-eyes">
      <g transform="rotate(-2 393.5904 424.08)">
    <path d="M 332.3904 424.08 Q 393.5904 387.36 454.7904 424.08 Q 393.5904 450.5184 332.3904 424.08 Z" fill="#F0E7D6" stroke="#111318" stroke-width="7"/>
    <circle cx="393.5904" cy="424.08" r="20.563200000000002" fill="#1767A8"/>
    <circle cx="393.5904" cy="424.08" r="11.750399999999999" fill="#111318"/>
    <path d="M 318.3904 369.36 Q 388.5904 339.36 470.7904 377.36" fill="none" stroke="#111318" stroke-width="24" stroke-linecap="round" opacity="0.888"/>
  </g>
      <g transform="rotate(2 719.1744 424.08)">
    <path d="M 657.9744 424.08 Q 719.1744 387.36 780.3744 424.08 Q 719.1744 450.5184 657.9744 424.08 Z" fill="#F0E7D6" stroke="#111318" stroke-width="7"/>
    <circle cx="719.1744" cy="424.08" r="20.563200000000002" fill="#1767A8"/>
    <circle cx="719.1744" cy="424.08" r="11.750399999999999" fill="#111318"/>
    <path d="M 643.9744 369.36 Q 714.1744 339.36 796.3744 377.36" fill="none" stroke="#111318" stroke-width="24" stroke-linecap="round" opacity="0.888"/>
  </g>
      <rect x="520" y="386.08" width="62" height="90" fill="#111318" opacity="0.88"/>
    </g><g id="portrait-nose">
    <polygon points="545,383.2 589.56,601 453,576" fill="#6A2936" opacity="0.72"/>
    <polygon points="563,415.2 615.56,583 525,557" fill="#F0E7D6" opacity="0.92"/>
    <path d="M 463 593 C 511 619 597 599 613 619" fill="none" stroke="#111318" stroke-width="12" stroke-linecap="round"/>
  </g><g id="portrait-mouth">
      <polygon points="427.4,698 527,672 642.6,700 543,722" fill="#D84E35"/>
      <line x1="415.4" y1="716" x2="656.6" y2="716" stroke="#111318" stroke-width="5"/>
    </g><g id="portrait-feminine-details"></g><g id="portrait-clothing-details"><polygon points="285,780 390,890 331,930" fill="#E8EEF0" opacity="0.78"/>
      <polygon points="545,780 440,890 505,930" fill="#D9E4E4" opacity="0.78"/>
      <rect x="385" y="796" width="122" height="18" fill="#C9A953" opacity="0.45"/><circle cx="437" cy="820" r="18" fill="#8B5D83" opacity="0.84"/>
      <circle cx="437" cy="820" r="32" fill="none" stroke="#25364A" stroke-width="4" opacity="0.34"/></g><g id="rarity-traits">
    <polygon points="302,250 347,175 372,250 407,175 447,250" fill="#C9A953" opacity="0.78"/>
    <circle cx="300" cy="555" r="26" fill="#C9A953" opacity="0.9"/>
    <circle cx="300" cy="555" r="44" fill="none" stroke="#B64B58" stroke-width="8" opacity="0.5"/>
    <path d="M 392 815 Q 505 880 620 815" fill="none" stroke="#C9A953" stroke-width="12" opacity="0.72"/>
  </g><g id="portrait-accents"><rect x="320" y="420" width="46.95347585855052" height="46.95347585855052" fill="none" stroke="#B64B58" stroke-width="4" opacity="0.34" transform="rotate(-22.326160792261362 320 420)"/><line x1="757.1751886121929" y1="300" x2="885.6496227756143" y2="289.2937971530482" stroke="#111318" stroke-width="3" opacity="0.22"/><polygon points="520,669.4474050188437 570.5525949811563,770.5525949811563 469.4474050188437,770.5525949811563" fill="#3A5A6A" opacity="0.2"/><polygon points="260,758.3330239672214 301.6669760327786,841.6669760327786 218.33302396722138,841.6669760327786" fill="#8B5D83" opacity="0.2"/><rect x="200" y="760" width="26.238829660229385" height="26.238829660229385" fill="none" stroke="#B64B58" stroke-width="4" opacity="0.34" transform="rotate(9.40396417863667 200 760)"/></g><g id="paper-texture" opacity="0.82" style="mix-blend-mode:multiply">
    <rect x="0" y="0" width="1024" height="1024" filter="url(#paper-noise)" opacity="1"/>
    <rect x="0" y="0" width="1024" height="1024" fill="#C5B17C" opacity="0.08"/>
  </g></svg>